<svg xmlns="http://www.w3.org/2000/svg" xmlns:xlink="http://www.w3.org/1999/xlink" width="500" zoomAndPan="magnify" viewBox="0 0 375 374.999991" height="500" preserveAspectRatio="xMidYMid meet" version="1.0"><defs><clipPath id="1c6fa49bca"><path d="M 199 50 L 343 50 L 343 325.1875 L 199 325.1875 Z M 199 50 " clip-rule="nonzero"/></clipPath><clipPath id="252b6caf14"><path d="M 32 50 L 170 50 L 170 325.1875 L 32 325.1875 Z M 32 50 " clip-rule="nonzero"/></clipPath></defs><path fill="#dadada" d="M 169.207031 187.878906 C 169.207031 188.878906 169.15625 189.875 169.058594 190.867188 C 168.960938 191.859375 168.8125 192.847656 168.621094 193.828125 C 168.425781 194.804688 168.183594 195.773438 167.894531 196.726562 C 167.601562 197.683594 167.265625 198.621094 166.886719 199.546875 C 166.503906 200.46875 166.078125 201.367188 165.605469 202.25 C 165.136719 203.128906 164.621094 203.984375 164.066406 204.816406 C 163.511719 205.644531 162.917969 206.445312 162.285156 207.21875 C 161.652344 207.988281 160.984375 208.730469 160.277344 209.433594 C 159.570312 210.140625 158.832031 210.8125 158.058594 211.445312 C 157.289062 212.078125 156.488281 212.671875 155.65625 213.226562 C 154.828125 213.78125 153.972656 214.292969 153.089844 214.765625 C 152.210938 215.234375 151.308594 215.660156 150.386719 216.042969 C 149.464844 216.425781 148.527344 216.761719 147.570312 217.050781 C 146.613281 217.339844 145.648438 217.582031 144.667969 217.777344 C 143.6875 217.972656 142.703125 218.117188 141.710938 218.214844 C 140.714844 218.316406 139.71875 218.363281 138.722656 218.363281 C 137.722656 218.363281 136.726562 218.316406 135.734375 218.214844 C 134.738281 218.117188 133.753906 217.972656 132.773438 217.777344 C 131.792969 217.582031 130.828125 217.339844 129.871094 217.050781 C 128.917969 216.761719 127.976562 216.425781 127.054688 216.042969 C 126.132812 215.660156 125.230469 215.234375 124.351562 214.765625 C 123.46875 214.292969 122.613281 213.78125 121.785156 213.226562 C 120.953125 212.671875 120.152344 212.078125 119.382812 211.445312 C 118.609375 210.8125 117.871094 210.140625 117.164062 209.433594 C 116.460938 208.730469 115.789062 207.988281 115.15625 207.21875 C 114.523438 206.445312 113.929688 205.644531 113.375 204.816406 C 112.820312 203.984375 112.308594 203.128906 111.835938 202.25 C 111.367188 201.367188 110.9375 200.46875 110.558594 199.546875 C 110.175781 198.621094 109.839844 197.683594 109.550781 196.726562 C 109.257812 195.773438 109.015625 194.804688 108.824219 193.828125 C 108.628906 192.847656 108.480469 191.859375 108.382812 190.867188 C 108.285156 189.875 108.238281 188.878906 108.238281 187.878906 C 108.238281 186.882812 108.285156 185.886719 108.382812 184.890625 C 108.480469 183.898438 108.628906 182.910156 108.824219 181.933594 C 109.015625 180.953125 109.257812 179.984375 109.550781 179.03125 C 109.839844 178.074219 110.175781 177.136719 110.558594 176.214844 C 110.9375 175.289062 111.367188 174.390625 111.835938 173.507812 C 112.308594 172.628906 112.820312 171.773438 113.375 170.941406 C 113.929688 170.113281 114.523438 169.3125 115.15625 168.539062 C 115.789062 167.769531 116.460938 167.03125 117.164062 166.324219 C 117.871094 165.617188 118.609375 164.949219 119.382812 164.316406 C 120.152344 163.679688 120.953125 163.085938 121.785156 162.53125 C 122.613281 161.976562 123.46875 161.464844 124.351562 160.996094 C 125.230469 160.523438 126.132812 160.097656 127.054688 159.714844 C 127.976562 159.332031 128.917969 158.996094 129.871094 158.707031 C 130.828125 158.417969 131.792969 158.175781 132.773438 157.980469 C 133.753906 157.785156 134.738281 157.640625 135.734375 157.542969 C 136.726562 157.445312 137.722656 157.394531 138.722656 157.394531 C 139.71875 157.394531 140.714844 157.445312 141.710938 157.542969 C 142.703125 157.640625 143.6875 157.785156 144.667969 157.980469 C 145.648438 158.175781 146.613281 158.417969 147.570312 158.707031 C 148.527344 158.996094 149.464844 159.332031 150.386719 159.714844 C 151.308594 160.097656 152.210938 160.523438 153.089844 160.996094 C 153.972656 161.464844 154.828125 161.976562 155.65625 162.53125 C 156.488281 163.085938 157.289062 163.679688 158.058594 164.316406 C 158.832031 164.949219 159.570312 165.617188 160.277344 166.324219 C 160.984375 167.03125 161.652344 167.769531 162.285156 168.539062 C 162.917969 169.3125 163.511719 170.113281 164.066406 170.941406 C 164.621094 171.773438 165.136719 172.628906 165.605469 173.507812 C 166.078125 174.390625 166.503906 175.289062 166.886719 176.214844 C 167.265625 177.136719 167.601562 178.074219 167.894531 179.03125 C 168.183594 179.984375 168.425781 180.953125 168.621094 181.933594 C 168.8125 182.910156 168.960938 183.898438 169.058594 184.890625 C 169.15625 185.886719 169.207031 186.882812 169.207031 187.878906 Z M 169.207031 187.878906 " fill-opacity="1" fill-rule="nonzero"/><path fill="#dadada" d="M 260.660156 187.878906 C 260.660156 188.878906 260.609375 189.875 260.511719 190.867188 C 260.414062 191.859375 260.265625 192.847656 260.074219 193.828125 C 259.878906 194.804688 259.636719 195.773438 259.34375 196.726562 C 259.054688 197.683594 258.71875 198.621094 258.335938 199.546875 C 257.957031 200.46875 257.53125 201.367188 257.058594 202.25 C 256.589844 203.128906 256.074219 203.984375 255.519531 204.816406 C 254.964844 205.644531 254.371094 206.445312 253.738281 207.21875 C 253.105469 207.988281 252.4375 208.730469 251.730469 209.433594 C 251.023438 210.140625 250.285156 210.8125 249.511719 211.445312 C 248.742188 212.078125 247.941406 212.671875 247.109375 213.226562 C 246.28125 213.78125 245.425781 214.292969 244.542969 214.765625 C 243.664062 215.234375 242.761719 215.660156 241.839844 216.042969 C 240.917969 216.425781 239.980469 216.761719 239.023438 217.050781 C 238.066406 217.339844 237.101562 217.582031 236.121094 217.777344 C 235.140625 217.972656 234.15625 218.117188 233.160156 218.214844 C 232.167969 218.316406 231.171875 218.363281 230.175781 218.363281 C 229.175781 218.363281 228.179688 218.316406 227.1875 218.214844 C 226.191406 218.117188 225.207031 217.972656 224.226562 217.777344 C 223.246094 217.582031 222.28125 217.339844 221.324219 217.050781 C 220.371094 216.761719 219.429688 216.425781 218.507812 216.042969 C 217.585938 215.660156 216.683594 215.234375 215.804688 214.765625 C 214.921875 214.292969 214.066406 213.78125 213.238281 213.226562 C 212.40625 212.671875 211.605469 212.078125 210.835938 211.445312 C 210.0625 210.8125 209.324219 210.140625 208.617188 209.433594 C 207.914062 208.730469 207.242188 207.988281 206.609375 207.21875 C 205.976562 206.445312 205.382812 205.644531 204.828125 204.816406 C 204.273438 203.984375 203.761719 203.128906 203.289062 202.25 C 202.820312 201.367188 202.390625 200.46875 202.011719 199.546875 C 201.628906 198.621094 201.292969 197.683594 201.003906 196.726562 C 200.710938 195.773438 200.46875 194.804688 200.277344 193.828125 C 200.082031 192.847656 199.933594 191.859375 199.835938 190.867188 C 199.738281 189.875 199.691406 188.878906 199.691406 187.878906 C 199.691406 186.882812 199.738281 185.886719 199.835938 184.890625 C 199.933594 183.898438 200.082031 182.910156 200.273438 181.933594 C 200.46875 180.953125 200.710938 179.984375 201.003906 179.03125 C 201.292969 178.074219 201.628906 177.136719 202.011719 176.214844 C 202.390625 175.289062 202.820312 174.390625 203.289062 173.507812 C 203.761719 172.628906 204.273438 171.773438 204.828125 170.941406 C 205.382812 170.113281 205.976562 169.3125 206.609375 168.539062 C 207.242188 167.769531 207.914062 167.03125 208.617188 166.324219 C 209.324219 165.617188 210.0625 164.949219 210.835938 164.316406 C 211.605469 163.679688 212.40625 163.085938 213.238281 162.53125 C 214.066406 161.976562 214.921875 161.464844 215.804688 160.996094 C 216.683594 160.523438 217.585938 160.097656 218.507812 159.714844 C 219.429688 159.332031 220.371094 158.996094 221.324219 158.707031 C 222.28125 158.417969 223.246094 158.175781 224.226562 157.980469 C 225.207031 157.785156 226.191406 157.640625 227.1875 157.542969 C 228.179688 157.445312 229.175781 157.394531 230.175781 157.394531 C 231.171875 157.394531 232.167969 157.445312 233.160156 157.542969 C 234.15625 157.640625 235.140625 157.785156 236.121094 157.980469 C 237.101562 158.175781 238.066406 158.417969 239.023438 158.707031 C 239.980469 158.996094 240.917969 159.332031 241.839844 159.714844 C 242.761719 160.097656 243.664062 160.523438 244.542969 160.996094 C 245.425781 161.464844 246.28125 161.976562 247.109375 162.53125 C 247.941406 163.085938 248.742188 163.679688 249.511719 164.316406 C 250.285156 164.949219 251.023438 165.617188 251.730469 166.324219 C 252.4375 167.03125 253.105469 167.769531 253.738281 168.539062 C 254.371094 169.3125 254.964844 170.113281 255.519531 170.941406 C 256.074219 171.773438 256.589844 172.628906 257.058594 173.507812 C 257.53125 174.390625 257.957031 175.289062 258.335938 176.214844 C 258.71875 177.136719 259.054688 178.074219 259.34375 179.03125 C 259.636719 179.984375 259.878906 180.953125 260.074219 181.933594 C 260.265625 182.910156 260.414062 183.898438 260.511719 184.890625 C 260.609375 185.886719 260.660156 186.882812 260.660156 187.878906 Z M 260.660156 187.878906 " fill-opacity="1" fill-rule="nonzero"/><path fill="#dadada" d="M 253.039062 134.53125 C 251.613281 134.535156 250.214844 134.339844 248.84375 133.945312 C 198.28125 119.464844 170.601562 119.464844 120.050781 133.945312 C 119.085938 134.21875 118.105469 134.398438 117.109375 134.480469 C 116.113281 134.5625 115.117188 134.546875 114.121094 134.433594 C 113.128906 134.320312 112.152344 134.109375 111.199219 133.804688 C 110.246094 133.496094 109.332031 133.101562 108.457031 132.617188 C 107.582031 132.128906 106.765625 131.5625 106 130.917969 C 105.238281 130.269531 104.542969 129.554688 103.921875 128.769531 C 103.300781 127.988281 102.757812 127.148438 102.300781 126.257812 C 101.84375 125.371094 101.476562 124.445312 101.203125 123.480469 C 100.925781 122.519531 100.75 121.539062 100.667969 120.542969 C 100.585938 119.542969 100.601562 118.546875 100.714844 117.554688 C 100.828125 116.558594 101.039062 115.585938 101.34375 114.632812 C 101.648438 113.679688 102.046875 112.765625 102.53125 111.890625 C 103.015625 111.015625 103.582031 110.195312 104.230469 109.433594 C 104.878906 108.667969 105.59375 107.976562 106.375 107.355469 C 107.160156 106.730469 107.996094 106.191406 108.886719 105.734375 C 109.777344 105.277344 110.703125 104.910156 111.667969 104.632812 C 167.4375 88.691406 201.441406 88.691406 257.230469 104.632812 C 258.105469 104.882812 258.953125 105.210938 259.769531 105.613281 C 260.589844 106.015625 261.363281 106.488281 262.097656 107.03125 C 262.832031 107.570312 263.511719 108.175781 264.136719 108.839844 C 264.761719 109.503906 265.320312 110.214844 265.820312 110.980469 C 266.316406 111.746094 266.742188 112.546875 267.09375 113.386719 C 267.445312 114.226562 267.722656 115.09375 267.917969 115.984375 C 268.117188 116.875 268.234375 117.773438 268.269531 118.683594 C 268.304688 119.597656 268.261719 120.503906 268.136719 121.40625 C 268.007812 122.308594 267.800781 123.191406 267.515625 124.058594 C 267.230469 124.925781 266.871094 125.757812 266.4375 126.558594 C 266 127.359375 265.5 128.117188 264.929688 128.828125 C 264.359375 129.539062 263.730469 130.195312 263.039062 130.792969 C 262.351562 131.390625 261.617188 131.921875 260.832031 132.390625 C 260.050781 132.855469 259.230469 133.246094 258.378906 133.566406 C 257.523438 133.886719 256.648438 134.125 255.75 134.289062 C 254.851562 134.449219 253.949219 134.53125 253.039062 134.53125 Z M 253.039062 134.53125 " fill-opacity="1" fill-rule="nonzero"/><path fill="#dadada" d="M 184.449219 283.203125 C 157.078125 282.984375 130.277344 278.957031 104.050781 271.125 C 103.089844 270.847656 102.164062 270.484375 101.273438 270.023438 C 100.382812 269.566406 99.546875 269.027344 98.761719 268.40625 C 97.980469 267.78125 97.265625 267.089844 96.617188 266.324219 C 95.96875 265.5625 95.402344 264.742188 94.917969 263.867188 C 94.433594 262.992188 94.035156 262.078125 93.730469 261.125 C 93.425781 260.171875 93.214844 259.199219 93.101562 258.203125 C 92.988281 257.210938 92.96875 256.214844 93.054688 255.21875 C 93.136719 254.21875 93.3125 253.238281 93.589844 252.277344 C 93.863281 251.316406 94.230469 250.390625 94.6875 249.5 C 95.144531 248.609375 95.6875 247.773438 96.308594 246.988281 C 96.929688 246.203125 97.625 245.488281 98.386719 244.839844 C 99.152344 244.195312 99.96875 243.628906 100.84375 243.140625 C 101.71875 242.65625 102.632812 242.261719 103.585938 241.953125 C 104.539062 241.648438 105.515625 241.4375 106.507812 241.324219 C 107.503906 241.210938 108.5 241.195312 109.496094 241.277344 C 110.492188 241.359375 111.472656 241.539062 112.4375 241.8125 C 118.261719 243.605469 124.144531 245.175781 130.085938 246.527344 C 136.03125 247.878906 142.015625 249.007812 148.042969 249.910156 C 154.066406 250.816406 160.121094 251.496094 166.199219 251.949219 C 172.273438 252.402344 178.359375 252.632812 184.457031 252.632812 C 190.550781 252.632812 196.636719 252.402344 202.710938 251.949219 C 208.789062 251.496094 214.84375 250.816406 220.867188 249.910156 C 226.894531 249.007812 232.878906 247.878906 238.824219 246.527344 C 244.765625 245.175781 250.648438 243.605469 256.472656 241.8125 C 257.4375 241.539062 258.417969 241.359375 259.414062 241.277344 C 260.410156 241.195312 261.40625 241.210938 262.402344 241.328125 C 263.394531 241.441406 264.367188 241.652344 265.320312 241.957031 C 266.273438 242.261719 267.1875 242.660156 268.0625 243.144531 C 268.9375 243.628906 269.757812 244.199219 270.519531 244.84375 C 271.28125 245.492188 271.976562 246.207031 272.597656 246.992188 C 273.21875 247.773438 273.757812 248.609375 274.21875 249.5 C 274.675781 250.390625 275.042969 251.316406 275.316406 252.277344 C 275.589844 253.242188 275.769531 254.21875 275.851562 255.21875 C 275.933594 256.214844 275.917969 257.210938 275.804688 258.203125 C 275.691406 259.199219 275.480469 260.171875 275.175781 261.125 C 274.871094 262.078125 274.472656 262.992188 273.988281 263.867188 C 273.503906 264.742188 272.9375 265.5625 272.289062 266.324219 C 271.644531 267.089844 270.929688 267.78125 270.144531 268.402344 C 269.363281 269.027344 268.523438 269.566406 267.636719 270.023438 C 266.746094 270.480469 265.820312 270.847656 264.859375 271.125 C 238.625 278.957031 211.824219 282.984375 184.449219 283.203125 Z M 184.449219 283.203125 " fill-opacity="1" fill-rule="nonzero"/><g clip-path="url(#1c6fa49bca)"><path fill="#dadada" d="M 268.28125 325.058594 C 248.648438 325.058594 222.554688 283.226562 222.554688 264.089844 C 222.554688 263.089844 222.652344 262.097656 222.847656 261.117188 C 223.042969 260.136719 223.332031 259.183594 223.714844 258.257812 C 224.097656 257.332031 224.566406 256.453125 225.121094 255.621094 C 225.675781 254.789062 226.308594 254.019531 227.015625 253.3125 C 227.726562 252.605469 228.496094 251.972656 229.328125 251.417969 C 230.160156 250.859375 231.039062 250.390625 231.960938 250.007812 C 232.886719 249.625 233.839844 249.335938 234.820312 249.140625 C 235.804688 248.945312 236.792969 248.847656 237.796875 248.847656 C 238.796875 248.847656 239.785156 248.945312 240.769531 249.140625 C 241.75 249.335938 242.703125 249.625 243.628906 250.007812 C 244.550781 250.390625 245.429688 250.859375 246.261719 251.417969 C 247.09375 251.972656 247.863281 252.605469 248.574219 253.3125 C 249.28125 254.019531 249.914062 254.789062 250.46875 255.621094 C 251.023438 256.453125 251.492188 257.332031 251.878906 258.257812 C 252.261719 259.183594 252.550781 260.136719 252.746094 261.117188 C 252.941406 262.097656 253.039062 263.089844 253.039062 264.089844 C 253.039062 270.445312 264.554688 288.363281 271.25 294.300781 C 284.261719 291.953125 299.03125 274.898438 307.695312 257.871094 C 316.199219 235.503906 312.929688 176.761719 286.058594 98.675781 C 279.011719 94.425781 271.605469 90.945312 263.835938 88.234375 C 256.066406 85.519531 248.105469 83.628906 239.945312 82.5625 L 229.085938 109.710938 C 228.710938 110.640625 228.253906 111.523438 227.707031 112.363281 C 227.160156 113.199219 226.539062 113.976562 225.839844 114.695312 C 225.140625 115.410156 224.378906 116.050781 223.554688 116.617188 C 222.726562 117.183594 221.855469 117.664062 220.933594 118.058594 C 220.015625 118.453125 219.066406 118.753906 218.085938 118.960938 C 217.105469 119.167969 216.117188 119.277344 215.117188 119.289062 C 214.117188 119.300781 213.125 119.214844 212.140625 119.03125 C 211.15625 118.847656 210.199219 118.570312 209.269531 118.199219 C 208.339844 117.828125 207.457031 117.367188 206.617188 116.824219 C 205.777344 116.277344 205 115.65625 204.285156 114.957031 C 203.566406 114.257812 202.925781 113.492188 202.359375 112.667969 C 201.796875 111.84375 201.316406 110.96875 200.921875 110.050781 C 200.527344 109.128906 200.226562 108.179688 200.019531 107.203125 C 199.8125 106.222656 199.703125 105.234375 199.691406 104.230469 C 199.675781 103.230469 199.761719 102.238281 199.945312 101.253906 C 200.128906 100.269531 200.40625 99.3125 200.78125 98.386719 L 216.023438 60.28125 C 216.328125 59.511719 216.695312 58.777344 217.121094 58.070312 C 217.546875 57.363281 218.027344 56.695312 218.5625 56.066406 C 219.097656 55.4375 219.675781 54.855469 220.304688 54.324219 C 220.9375 53.789062 221.601562 53.308594 222.308594 52.882812 C 223.015625 52.457031 223.753906 52.089844 224.519531 51.785156 C 225.285156 51.480469 226.074219 51.238281 226.878906 51.058594 C 227.683594 50.878906 228.5 50.765625 229.324219 50.722656 C 230.148438 50.675781 230.96875 50.695312 231.789062 50.785156 C 238.515625 51.222656 245.1875 52.09375 251.800781 53.402344 C 258.414062 54.707031 264.914062 56.4375 271.300781 58.589844 C 277.6875 60.746094 283.910156 63.304688 289.964844 66.265625 C 296.019531 69.230469 301.855469 72.574219 307.476562 76.300781 C 308.785156 77.210938 309.925781 78.300781 310.890625 79.566406 C 311.859375 80.835938 312.605469 82.222656 313.136719 83.730469 C 340.769531 162.035156 349.65625 235.054688 335.78125 269.753906 C 335.621094 270.140625 335.445312 270.515625 335.261719 270.910156 C 322.160156 297.089844 297.679688 325.058594 268.28125 325.058594 Z M 272.980469 295.625 Z M 272.980469 295.625 " fill-opacity="1" fill-rule="nonzero"/></g><g clip-path="url(#252b6caf14)"><path fill="#dadada" d="M 103.175781 325.058594 C 74.703125 325.058594 51.148438 296.953125 38.609375 270.644531 C 38.433594 270.277344 38.273438 269.882812 38.128906 269.515625 C 24.960938 234.953125 33.429688 162.121094 59.691406 83.949219 C 60.191406 82.457031 60.90625 81.078125 61.839844 79.804688 C 62.769531 78.535156 63.867188 77.433594 65.140625 76.503906 C 70.40625 72.773438 75.902344 69.417969 81.628906 66.4375 C 87.351562 63.457031 93.253906 60.878906 99.332031 58.707031 C 105.410156 56.535156 111.609375 54.785156 117.925781 53.460938 C 124.242188 52.132812 130.621094 51.246094 137.058594 50.792969 C 137.882812 50.699219 138.707031 50.679688 139.53125 50.722656 C 140.359375 50.765625 141.175781 50.875 141.984375 51.054688 C 142.789062 51.230469 143.578125 51.472656 144.347656 51.777344 C 145.117188 52.082031 145.855469 52.445312 146.5625 52.871094 C 147.273438 53.296875 147.945312 53.777344 148.574219 54.3125 C 149.207031 54.847656 149.789062 55.429688 150.324219 56.058594 C 150.863281 56.6875 151.34375 57.359375 151.769531 58.066406 C 152.199219 58.773438 152.566406 59.511719 152.875 60.28125 L 168.117188 98.386719 C 168.488281 99.3125 168.765625 100.269531 168.949219 101.253906 C 169.132812 102.238281 169.21875 103.230469 169.207031 104.230469 C 169.191406 105.234375 169.082031 106.222656 168.875 107.203125 C 168.667969 108.179688 168.367188 109.128906 167.972656 110.050781 C 167.582031 110.96875 167.101562 111.84375 166.535156 112.667969 C 165.96875 113.492188 165.328125 114.257812 164.609375 114.957031 C 163.894531 115.65625 163.117188 116.277344 162.277344 116.824219 C 161.4375 117.367188 160.554688 117.828125 159.625 118.199219 C 158.695312 118.570312 157.738281 118.847656 156.757812 119.03125 C 155.773438 119.214844 154.78125 119.300781 153.777344 119.289062 C 152.777344 119.277344 151.789062 119.167969 150.808594 118.960938 C 149.828125 118.753906 148.878906 118.453125 147.960938 118.058594 C 147.039062 117.664062 146.167969 117.183594 145.34375 116.617188 C 144.515625 116.050781 143.753906 115.410156 143.054688 114.695312 C 142.355469 113.976562 141.734375 113.199219 141.1875 112.363281 C 140.640625 111.523438 140.183594 110.640625 139.8125 109.710938 L 128.980469 82.632812 C 121.5 83.714844 114.21875 85.585938 107.140625 88.25 C 100.0625 90.910156 93.355469 94.300781 87.011719 98.414062 C 61.359375 176.699219 58.265625 235.65625 66.433594 258.121094 C 74.484375 274.738281 87.957031 291.382812 99.832031 294.164062 C 103.671875 289.867188 106.949219 285.179688 109.660156 280.09375 C 112.371094 275.007812 114.4375 269.675781 115.859375 264.089844 C 115.859375 263.089844 115.957031 262.097656 116.152344 261.117188 C 116.347656 260.136719 116.636719 259.183594 117.019531 258.257812 C 117.402344 257.332031 117.871094 256.453125 118.425781 255.621094 C 118.984375 254.789062 119.613281 254.019531 120.320312 253.3125 C 121.03125 252.605469 121.800781 251.972656 122.632812 251.417969 C 123.464844 250.859375 124.34375 250.390625 125.265625 250.007812 C 126.191406 249.625 127.144531 249.335938 128.125 249.140625 C 129.109375 248.945312 130.097656 248.847656 131.101562 248.847656 C 132.101562 248.847656 133.09375 248.945312 134.074219 249.140625 C 135.054688 249.335938 136.007812 249.625 136.933594 250.007812 C 137.859375 250.390625 138.734375 250.859375 139.566406 251.417969 C 140.398438 251.972656 141.171875 252.605469 141.878906 253.3125 C 142.585938 254.019531 143.21875 254.789062 143.773438 255.621094 C 144.328125 256.453125 144.800781 257.332031 145.183594 258.257812 C 145.566406 259.183594 145.855469 260.136719 146.050781 261.117188 C 146.246094 262.097656 146.34375 263.089844 146.34375 264.089844 C 145.671875 270.699219 144.183594 277.117188 141.875 283.347656 C 139.566406 289.574219 136.507812 295.414062 132.707031 300.863281 C 117.28125 325.058594 107.03125 325.058594 103.175781 325.058594 Z M 103.175781 325.058594 " fill-opacity="1" fill-rule="nonzero"/></g></svg>