<svg xmlns="http://www.w3.org/2000/svg" xmlns:xlink="http://www.w3.org/1999/xlink" width="500" zoomAndPan="magnify" viewBox="0 0 375 374.999991" height="500" preserveAspectRatio="xMidYMid meet" version="1.0"><defs><clipPath id="39073a2b56"><path d="M 24.199219 65.203125 L 350.449219 65.203125 L 350.449219 309.703125 L 24.199219 309.703125 Z M 24.199219 65.203125 " clip-rule="nonzero"/></clipPath></defs><g clip-path="url(#39073a2b56)"><path fill="#dadada" d="M 325.164062 309.742188 L 49.507812 309.742188 C 47.414062 309.46875 45.894531 309.234375 44.9375 309.035156 C 36.109375 307.175781 28.78125 300.261719 25.835938 292.003906 C 24.953125 289.535156 24.628906 286.949219 24.199219 284.328125 L 24.199219 90.21875 C 24.660156 88.972656 24.628906 87.570312 24.882812 86.507812 C 25.234375 85.058594 25.589844 83.4375 26.167969 82.089844 C 29.890625 73.378906 36.386719 68 45.660156 65.945312 C 46.511719 65.753906 47.367188 65.640625 48.222656 65.605469 C 49.375 65.554688 50.5 65.285156 51.664062 65.285156 C 141.46875 65.246094 232.234375 65.246094 323.957031 65.285156 C 324.660156 65.285156 325.355469 65.335938 326.042969 65.4375 C 326.730469 65.542969 327.417969 65.640625 328.113281 65.730469 C 330.515625 66.046875 332.636719 66.617188 334.480469 67.441406 C 343.257812 71.359375 349.738281 79.605469 350.382812 89.425781 C 350.488281 91.019531 350.648438 92.570312 350.640625 94.148438 C 350.269531 142.890625 350.472656 191.671875 350.476562 243.855469 C 350.476562 255.03125 350.773438 266.789062 350.613281 278.566406 C 350.566406 282.191406 350.484375 284.648438 350.363281 285.929688 C 349.636719 293.644531 345.996094 299.929688 339.441406 304.792969 C 336.320312 307.105469 332.832031 308.574219 328.976562 309.199219 C 327.710938 309.40625 326.4375 309.585938 325.164062 309.742188 Z M 182.566406 212.238281 C 186.714844 213.804688 191.582031 212.789062 194.800781 209.792969 C 223.25 183.300781 251.535156 157.082031 279.660156 131.128906 C 295.90625 116.140625 312.011719 101.230469 327.976562 86.394531 C 328.222656 86.167969 328.230469 85.929688 328 85.683594 C 327.636719 85.300781 327.097656 85.109375 326.378906 85.109375 C 233.222656 85.078125 141.199219 85.0625 50.304688 85.0625 C 48.523438 85.0625 47.503906 85.472656 46.300781 86.625 C 46.125 86.792969 46.128906 86.957031 46.308594 87.117188 C 47.28125 87.972656 48.253906 88.84375 49.226562 89.730469 C 60.070312 99.636719 72.230469 110.878906 85.707031 123.453125 C 114.640625 150.445312 142.722656 176.539062 169.949219 201.738281 C 172.367188 203.976562 174.847656 206.269531 177.394531 208.617188 C 179.4375 210.5 181.160156 211.707031 182.566406 212.238281 Z M 330.328125 112.277344 C 330.328125 112.210938 330.292969 112.15625 330.226562 112.105469 C 330.160156 112.050781 330.09375 112.046875 330.023438 112.097656 C 327.78125 113.828125 325.980469 115.863281 323.847656 117.847656 C 300.742188 139.316406 277.035156 161.429688 252.734375 184.191406 C 252.503906 184.410156 252.257812 184.609375 252 184.777344 C 251.628906 185.027344 251.613281 185.296875 251.957031 185.589844 C 252.765625 186.273438 253.480469 186.910156 254.101562 187.496094 C 267.242188 199.804688 281.386719 213.132812 296.53125 227.476562 C 299.460938 230.25 302.03125 232.722656 304.246094 234.898438 C 306.65625 237.265625 309.214844 239.503906 311.617188 241.863281 C 313.5 243.707031 315.339844 245.449219 317.136719 247.082031 C 320.132812 249.792969 322.871094 252.652344 325.882812 255.371094 C 327.308594 256.65625 328.6875 257.996094 330.023438 259.386719 C 330.078125 259.445312 330.144531 259.46875 330.222656 259.453125 C 330.347656 259.429688 330.410156 259.375 330.410156 259.28125 C 330.410156 210.363281 330.410156 161.460938 330.398438 112.578125 C 330.398438 112.515625 330.382812 112.453125 330.355469 112.398438 C 330.335938 112.363281 330.328125 112.324219 330.328125 112.277344 Z M 44.84375 259.457031 C 46.867188 257.4375 49.054688 255.308594 51.414062 253.0625 C 72.550781 232.960938 93.425781 213.023438 114.039062 193.257812 C 116.382812 191.007812 118.851562 188.679688 121.4375 186.269531 C 121.945312 185.804688 121.941406 185.339844 121.429688 184.878906 C 120.433594 183.972656 119.488281 183.101562 118.59375 182.265625 C 93.691406 158.945312 70.242188 137.101562 48.246094 116.730469 C 46.929688 115.511719 45.667969 114.335938 44.464844 113.203125 C 44.410156 113.152344 44.382812 113.152344 44.382812 113.203125 L 44.289062 259.226562 C 44.289062 259.75 44.472656 259.828125 44.84375 259.457031 Z M 188.445312 233.378906 C 178.542969 233.828125 170.554688 230.238281 163.3125 223.417969 C 156.71875 217.214844 148.585938 209.59375 138.90625 200.558594 C 138.496094 200.179688 138.058594 199.8125 137.585938 199.453125 C 137.449219 199.351562 137.292969 199.304688 137.121094 199.3125 C 136.949219 199.320312 136.800781 199.382812 136.671875 199.5 C 135.453125 200.605469 134.304688 201.847656 133.121094 202.96875 C 107.878906 227.085938 82.871094 251.027344 58.105469 274.800781 C 54.976562 277.804688 52.1875 280.429688 49.738281 282.664062 C 48.359375 283.929688 47.058594 285.175781 45.835938 286.40625 C 45.503906 286.738281 45.5 287.074219 45.820312 287.414062 C 47.777344 289.5 49.503906 289.359375 52.664062 289.359375 C 143.191406 289.359375 233.714844 289.359375 324.242188 289.359375 C 326.472656 289.359375 327.710938 289.136719 328.902344 287.328125 C 329.175781 286.910156 329.132812 286.527344 328.769531 286.1875 C 299.597656 258.589844 270.4375 230.964844 241.285156 203.308594 C 239.660156 201.765625 238.285156 200.375 237.15625 199.136719 C 237.007812 198.972656 236.824219 198.886719 236.601562 198.878906 C 236.382812 198.867188 236.191406 198.9375 236.027344 199.089844 C 227.808594 206.6875 219.652344 214.394531 211.503906 222.054688 C 208.378906 224.992188 205.960938 227.015625 204.246094 228.121094 C 199.203125 231.375 193.9375 233.128906 188.445312 233.378906 Z M 188.445312 233.378906 " fill-opacity="1" fill-rule="nonzero"/></g></svg>